<svg xmlns="http://www.w3.org/2000/svg" width="50" height="50" viewBox="0 0 100 100" xmlns:v="https://vecta.io/nano"><circle cx="77" cy="13" r="1" fill="#f1bc19"/><circle cx="50" cy="50" r="37" fill="#e4e4f9"/><circle cx="83" cy="15" r="4" fill="#f1bc19"/><circle cx="87" cy="24" r="2" fill="#8889b9"/><g fill="#fbcd59"><circle cx="81" cy="76" r="2"/><circle cx="15" cy="63" r="4"/></g><circle cx="25" cy="87" r="2" fill="#8889b9"/><g fill="#fff"><circle cx="23.5" cy="67.5" r="2.5"/><circle cx="77.5" cy="30.5" r="1.5"/></g><path fill="#ee3e54" d="M35.7 24.7h9.6v50.66l-9.6.873z"/><path fill="#472b29" d="M44.6 25.4v49.322l-8.2.745V25.4h8.2M46 24H35v53l11-1V24z"/><path fill="#ee3e54" d="M54.7 75.36V24.7h9.6v51.534z"/><path fill="#472b29" d="M63.6 25.4v50.067l-8.2-.745V25.4h8.2M65 24H54v52l11 1V24z"/><path fill="#ee3e54" d="M54.505 75.343L36 24.7h9.506L63.97 76.203z"/><path d="M45.015 25.4l17.927 50.007-7.93-.72-18-49.287h8.013M46 24H35l19 52 11 1-19-53zm15.5 12a.5.5 0 0 1-.5-.5v-8a.5.5 0 1 1 1 0v8a.5.5 0 0 1-.5.5zm-23 12a.5.5 0 0 1-.5-.5v-8a.5.5 0 1 1 1 0v8a.5.5 0 0 1-.5.5zm0 26a.5.5 0 0 1-.5-.5v-16a.5.5 0 1 1 1 0v16a.5.5 0 0 1-.5.5zm0-19a.5.5 0 0 1-.5-.5v-4a.5.5 0 1 1 1 0v4a.5.5 0 0 1-.5.5zm23 4a.5.5 0 0 1-.5-.5v-20a.5.5 0 1 1 1 0v20a.5.5 0 0 1-.5.5z" fill="#472b29"/></svg>