<svg xmlns="http://www.w3.org/2000/svg" width="50" height="50" viewBox="0 0 100 100" xmlns:v="https://vecta.io/nano"><circle cx="78" cy="14" r="1" fill="#f1bc19"/><circle cx="50" cy="50" r="38" fill="#f9dbd2"/><circle cx="84" cy="16" r="4" fill="#f1bc19"/><circle cx="14" cy="26" r="2" fill="#ee3e54"/><g fill="#fbcd59"><circle cx="78" cy="77" r="2"/><circle cx="17" cy="78" r="4"/></g><circle cx="24" cy="83" r="2" fill="#ee3e54"/><g fill="#fff"><circle cx="64.483" cy="78.517" r="2.483"/><circle cx="16" cy="48" r="1"/></g><circle cx="86" cy="31" r="1" fill="#f1bc19"/><circle cx="84" cy="45" r="2" fill="#fff"/><path fill="#8889b9" d="M66.44 55.517c-1.305-1.456-2.254-2.544-2.254-5.452V38.937c.085-5.67-1.4-10.282-9.23-11.932-9.242-1.52-16.426 1.757-17.914 8.935-.145.698.35 1.373 1.064 1.463l5.704.714c.63.08 1.204-.332 1.358-.942.606-2.398 2.103-4.076 5.685-4.076 3.333.254 4.102 3.09 4.102 5.65v1.556c-5.706.143-18.95.682-19.142 11.71-.214 12.228 12.39 10.197 13.8 9.816 0 0 2.845-.5 6.492-4.16.778 1.54 1.885 2.864 3.14 4.092.462.452 1.195.485 1.688.066l5.38-4.568c.524-.445.58-1.23.124-1.74zm-12.092-3.6c-1.474 4.982-8.872 6.177-9.133-.286-.288-7.14 9.195-6.46 9.657-6.432-.001 0 .313 3.886-.524 6.718z"/><path fill="#472b29" d="M46.08 62.89c-2.268 0-5.176-.432-7.475-2.224-2.383-1.858-3.558-4.774-3.49-8.668.2-11.43 13.346-12.215 19.142-12.378v-.874c0-4.688-2.6-4.885-3.455-4.95-2.79.002-4.333 1.096-4.953 3.55-.242.956-1.15 1.59-2.124 1.465l-5.705-.714a1.95 1.95 0 0 1-1.343-.8c-.31-.434-.427-.98-.32-1.5 1.53-7.378 8.875-11.1 18.713-9.484 8.793 1.855 9.894 7.427 9.815 12.633v11.118c0 2.668.825 3.6 2.075 4.984h0a1.89 1.89 0 0 1 .484 1.405 1.91 1.91 0 0 1-.676 1.336l-5.38 4.568c-.77.655-1.902.613-2.63-.1-1.217-1.2-2.13-2.306-2.82-3.454-3.44 3.195-6.083 3.69-6.2 3.712 0 .003-1.552.375-3.656.375zm4.776-30.493c3.116.235 4.802 2.49 4.802 6.35v2.24l-.683.017c-7.845.197-18.294 1.554-18.46 11.02-.06 3.43.933 5.966 2.95 7.54 3.84 2.993 9.91 1.605 9.968 1.59.084-.018 2.765-.552 6.18-3.98l.685-.687.437.866c.658 1.304 1.612 2.545 3.004 3.906.205.2.53.215.745.033l5.38-4.568a.52.52 0 0 0 .185-.364c.01-.14-.037-.272-.13-.376h0c-1.305-1.457-2.433-2.715-2.433-5.92V38.938c.085-5.638-1.357-9.703-8.673-11.247-9-1.478-15.72 1.813-17.084 8.392a.51.51 0 0 0 .087.401c.1.126.225.206.378.225l5.705.714c.265.034.523-.142.593-.42.78-3.1 2.863-4.606 6.362-4.606zM49.07 56.77c-.2 0-.396-.012-.59-.036-2.367-.294-3.85-2.192-3.965-5.076-.08-1.956.507-3.56 1.742-4.768 2.62-2.56 7.276-2.48 8.64-2.392l.605.038.067.605c.013.164.315 4.05-.55 6.972l-.67-.198.67.198c-.895 3.023-3.6 4.657-5.95 4.657zm4.85-10.9c-1.662 0-4.872.25-6.685 2.02-.953.932-1.386 2.145-1.323 3.7.088 2.174 1.086 3.538 2.74 3.744 1.834.23 4.274-1.094 5.023-3.628h0c.598-2.02.577-4.662.53-5.844l-.285-.003z"/><path fill="#f1bc19" d="M23.354 62.2c-.98-.624-1.313.357-.75.87C22.604 63.07 33.687 74 48 74c13.468 0 20.683-3.91 24.976-7.16.44-.332.5-1 .134-1.42-.005-.005-.01-.01-.014-.016-.263-.303-.673-.382-1.02-.2-2.25 1.184-11.235 5.396-23.826 4.515C32 68.58 23.354 62.2 23.354 62.2z"/><path fill="#472b29" d="M48 74.5c-14.352 0-25.635-10.962-25.747-11.073-.462-.42-.564-1.115-.22-1.566.26-.34.83-.564 1.59-.08.01.006.02.012.027.02.086.063 8.74 6.308 24.634 7.42 12.362.864 21.156-3.194 23.558-4.458.557-.294 1.212-.167 1.63.314a1.51 1.51 0 0 1 .367 1.154c-.042.404-.248.772-.563 1C66.82 72.125 58.553 74.5 48 74.5zm-25.202-12c.03.015.046.113.143.2.123.122 11.125 10.8 25.06 10.8 10.327 0 18.398-2.31 24.674-7.058a.45.45 0 0 0 .172-.318c.015-.14-.027-.277-.114-.377-.125-.143-.28-.175-.423-.1-2.46 1.296-11.463 5.457-24.094 4.57-16.026-1.122-24.606-7.2-25.143-7.602-.15-.094-.24-.112-.274-.115z"/><path fill="#f1bc19" d="M68.655 63.745s6.7-1.146 7.404.135-.52 4.92-1.624 7.28c-.4.81.216 1.034.65.674 0 0 3.906-3.056 3.915-9.59.001-.472-.338-.87-.786-.95-2.664-.485-6.716-.57-9.84 1.328-.87.542-.583 1.258.282 1.123z"/><path d="M74.672 72.5a.87.87 0 0 1-.539-.179c-.138-.108-.558-.527-.148-1.378 1.415-3.022 2.12-5.956 1.638-6.82-.284-.508-3.565-.454-6.883.115-.645.098-1.164-.14-1.338-.607-.145-.4-.035-.97.708-1.434 3.718-2.258 8.367-1.728 10.194-1.395a1.46 1.46 0 0 1 1.196 1.443c-.008 6.7-3.94 9.852-4.106 9.982a1.14 1.14 0 0 1-.722.272zm-1.26-9.735c1.458 0 2.716.2 3.083.87 1.04 1.862-1.22 6.9-1.584 7.686.7-.628 3.58-3.6 3.588-9.078 0-.222-.16-.42-.375-.458-1.715-.313-6.07-.814-9.492 1.263-.13.08-.206.156-.246.2a.7.7 0 0 0 .188-.007c1.144-.196 3.128-.486 4.838-.486zm-4.758.98h0zm-4.966-7.307c-.062 0-.124-.023-.172-.068-1.418-1.34-2.266-3.5-2.266-5.807v-1.375a.25.25 0 1 1 .5 0v1.375c0 2.545 1.1 4.48 2.1 5.443a.25.25 0 0 1-.171.432zM61.5 46.75a.25.25 0 0 1-.25-.25v-8.313a.25.25 0 1 1 .5 0V46.5a.25.25 0 0 1-.25.25zm-.17-10.7a.25.25 0 0 1-.247-.21c-.462-2.876-1.934-4.574-4.92-5.677a.25.25 0 0 1-.148-.321.25.25 0 0 1 .32-.148c3.137 1.158 4.753 3.03 5.242 6.067.02.136-.07.265-.208.287l-.04.002zm-17.205 20.7c-.074 0-.148-.033-.197-.097-1.695-2.185-2.188-5.14-1.316-7.904a.25.25 0 0 1 .313-.163.25.25 0 0 1 .163.314c-.822 2.608-.36 5.392 1.234 7.447a.25.25 0 0 1-.197.403zm-.182-9.915c-.05 0-.1-.015-.144-.045a.25.25 0 0 1-.061-.348c.208-.296.436-.576.678-.83.6-.622 1.26-1.094 1.985-1.404a.25.25 0 0 1 .196.46 5.48 5.48 0 0 0-1.819 1.288c-.225.237-.437.497-.63.773-.047.07-.125.107-.204.107z" fill="#472b29"/></svg>